<?xml version="1.0" standalone="no"?>
<!DOCTYPE svg PUBLIC "-//W3C//DTD SVG 20010904//EN"
 "http://www.w3.org/TR/2001/REC-SVG-20010904/DTD/svg10.dtd">
<svg version="1.0" xmlns="http://www.w3.org/2000/svg"
 width="512.000000pt" height="512.000000pt" viewBox="0 0 512.000000 512.000000"
 preserveAspectRatio="xMidYMid meet">
<metadata>
Created by potrace 1.14, written by Peter Selinger 2001-2017
</metadata>
<g transform="translate(0.000000,512.000000) scale(0.100000,-0.100000)"
fill="#000000" stroke="none">
<path d="M3981 5103 c-34 -12 -88 -60 -260 -230 -213 -212 -216 -215 -261
-217 -25 -2 -59 -10 -76 -19 -16 -8 -234 -219 -483 -467 -392 -391 -455 -450
-474 -444 -94 30 -324 -32 -494 -134 l-78 -47 -185 1 c-108 1 -193 -3 -205 -9
-47 -24 -59 -78 -26 -118 18 -22 27 -24 123 -26 56 -1 107 -2 112 -2 6 -1 -2
-13 -16 -28 -14 -16 -40 -48 -59 -73 l-34 -45 -210 0 c-115 1 -223 -3 -238 -8
-30 -10 -56 -51 -51 -81 1 -11 12 -29 24 -40 19 -20 33 -21 203 -24 100 -2
183 -4 184 -6 2 -1 -8 -34 -21 -72 l-24 -69 -309 0 c-169 0 -317 -4 -329 -8
-23 -8 -44 -46 -44 -78 0 -11 11 -31 25 -44 l24 -25 295 0 294 0 -10 -37 c-13
-47 -25 -63 -50 -63 -71 0 -285 -197 -323 -297 l-19 -52 -348 -1 c-191 0 -354
-3 -363 -6 -16 -7 -42 -51 -40 -69 3 -30 18 -53 41 -63 17 -8 135 -12 384 -12
333 0 360 -1 360 -17 0 -9 324 -341 720 -738 396 -396 720 -723 720 -725 0 -3
-97 -5 -215 -5 -204 0 -215 -1 -235 -21 -26 -25 -34 -73 -17 -95 28 -37 50
-39 342 -37 l286 2 75 -75 75 -75 -113 1 c-62 1 -124 -2 -137 -7 -56 -20 -70
-92 -25 -127 25 -20 39 -21 231 -21 l204 0 76 -51 c91 -62 211 -119 313 -149
158 -47 194 -49 900 -47 l665 2 50 27 c109 57 165 144 173 264 6 101 -23 191
-89 273 l-48 60 -1 192 c-2 256 -24 347 -121 489 -94 139 -250 242 -415 275
-17 3 -64 8 -105 10 -101 7 -164 22 -232 58 -63 33 -146 116 -178 178 -21 42
-51 159 -41 160 87 9 116 29 114 80 -1 45 -31 72 -81 73 -48 1 -49 3 -52 135
l-3 95 35 1 c54 3 78 14 92 43 28 57 -6 104 -77 107 -55 3 -62 7 -70 47 -6 31
1 39 194 233 186 188 200 205 200 238 0 20 -5 48 -12 62 -11 24 -5 32 153 190
90 90 169 177 176 192 7 15 12 45 13 66 0 37 12 50 256 295 141 142 266 275
278 297 20 39 21 50 21 420 0 425 1 418 -74 490 -64 63 -82 65 -575 64 -370 0
-448 -3 -485 -16z"/>
<path d="M273 3542 c-24 -4 -63 -46 -63 -68 0 -25 22 -62 44 -71 32 -14 141
-9 161 7 39 32 34 99 -8 121 -21 12 -95 18 -134 11z"/>
<path d="M615 3532 c-28 -14 -40 -50 -31 -88 12 -47 43 -51 371 -50 270 1 304
3 328 19 22 14 27 25 27 57 0 32 -5 43 -27 57 -24 16 -58 18 -335 18 -233 0
-315 -3 -333 -13z"/>
<path d="M599 3240 c-61 -15 -75 -106 -21 -134 32 -17 185 -20 223 -5 26 10
49 45 49 74 0 8 -10 26 -23 40 -21 25 -28 27 -114 29 -51 0 -102 -1 -114 -4z"/>
<path d="M71 2940 c-49 -7 -77 -48 -65 -92 15 -52 39 -58 227 -58 165 0 168 0
192 25 32 31 33 74 1 104 -22 21 -33 22 -172 24 -82 1 -164 0 -183 -3z"/>
<path d="M637 2641 c-6 -2 -22 -13 -34 -24 -33 -29 -31 -79 3 -106 25 -19 40
-21 199 -21 169 0 173 0 199 25 52 48 15 124 -61 126 -21 0 -95 1 -166 2 -70
1 -133 0 -140 -2z"/>
<path d="M1672 698 c-35 -10 -52 -34 -52 -73 0 -48 28 -67 102 -70 82 -3 115
13 124 61 6 30 3 40 -19 61 -20 21 -36 26 -76 27 -28 1 -64 -2 -79 -6z"/>
<path d="M1991 394 c-49 -20 -58 -89 -16 -122 21 -17 42 -20 124 -21 84 -1
102 2 123 19 14 11 28 28 30 38 8 30 -18 81 -44 87 -47 11 -189 11 -217 -1z"/>
</g>
</svg>
